<?xml version="1.0" standalone="no"?>
<!DOCTYPE svg PUBLIC "-//W3C//DTD SVG 20010904//EN"
 "http://www.w3.org/TR/2001/REC-SVG-20010904/DTD/svg10.dtd">
<svg version="1.0" xmlns="http://www.w3.org/2000/svg"
 width="225.000000pt" height="225.000000pt" viewBox="0 0 225.000000 225.000000"
 preserveAspectRatio="xMidYMid meet">

<g transform="translate(0.000000,225.000000) scale(0.100000,-0.100000)"
fill="#000000" stroke="none">
<path d="M109 2157 c-29 -16 -54 -40 -74 -72 l-30 -48 -3 -876 c-2 -638 0
-891 8 -930 21 -93 110 -161 213 -161 83 0 100 14 482 412 201 209 372 392
379 406 49 98 10 217 -92 279 -53 32 -140 32 -196 -1 -23 -13 -115 -102 -206
-197 l-165 -173 -5 620 -5 621 -30 48 c-39 64 -97 95 -175 95 -40 0 -70 -7
-101 -23z"/>
<path d="M1945 2166 c-44 -19 -103 -89 -112 -133 -4 -21 -8 -309 -8 -640 0
-332 -2 -603 -4 -603 -2 0 -87 85 -190 189 -168 171 -191 190 -234 201 -164
43 -315 -153 -228 -297 11 -16 181 -199 380 -406 301 -312 369 -379 406 -393
94 -36 216 9 265 96 l25 45 0 900 0 900 -22 40 c-27 50 -58 80 -105 100 -45
18 -132 19 -173 1z"/>
</g>
</svg>
